<mxfile host="app.diagrams.net" modified="2021-04-20T15:28:27.915Z" agent="5.0 (Windows NT 10.0; Win64; x64) AppleWebKit/537.36 (KHTML, like Gecko) Chrome/89.0.4389.128 Safari/537.36" etag="CvpQ6uTl-yJGFt-1vVez" version="14.6.3" type="github">
  <diagram id="4mkBv_YgtIYzEHDCqf_Q" name="Page-1">
    <mxGraphModel dx="1234" dy="469" grid="1" gridSize="10" guides="1" tooltips="1" connect="1" arrows="1" fold="1" page="1" pageScale="1" pageWidth="827" pageHeight="1169" math="0" shadow="0">
      <root>
        <mxCell id="0" />
        <mxCell id="1" parent="0" />
        <mxCell id="hd8weYj9Gk-Xb1H9IMSv-15" value="" style="rounded=0;whiteSpace=wrap;html=1;" vertex="1" parent="1">
          <mxGeometry x="440" y="50" width="360" height="330" as="geometry" />
        </mxCell>
        <mxCell id="hd8weYj9Gk-Xb1H9IMSv-14" value="" style="rounded=0;whiteSpace=wrap;html=1;" vertex="1" parent="1">
          <mxGeometry x="260" y="30" width="550" height="370" as="geometry" />
        </mxCell>
        <mxCell id="hd8weYj9Gk-Xb1H9IMSv-2" value="" style="rounded=0;whiteSpace=wrap;html=1;" vertex="1" parent="1">
          <mxGeometry x="30" y="30" width="120" height="370" as="geometry" />
        </mxCell>
        <mxCell id="hd8weYj9Gk-Xb1H9IMSv-3" value="" style="aspect=fixed;html=1;points=[];align=center;image;fontSize=12;image=img/lib/azure2/compute/Kubernetes_Services.svg;fontFamily=Helvetica;fontColor=#000000;strokeColor=#000000;fillColor=#ffffff;" vertex="1" parent="1">
          <mxGeometry x="520" y="200" width="86.49" height="50" as="geometry" />
        </mxCell>
        <mxCell id="hd8weYj9Gk-Xb1H9IMSv-5" value="" style="aspect=fixed;perimeter=ellipsePerimeter;html=1;align=center;shadow=0;dashed=0;spacingTop=3;image;image=img/lib/active_directory/generic_server.svg;" vertex="1" parent="1">
          <mxGeometry x="70" y="50" width="28.000000000000004" height="50" as="geometry" />
        </mxCell>
        <mxCell id="hd8weYj9Gk-Xb1H9IMSv-6" value="&lt;span style=&quot;color: rgba(0 , 0 , 0 , 0) ; font-family: monospace ; font-size: 0px ; background-color: rgb(248 , 249 , 250)&quot;&gt;%3CmxGraphModel%3E%3Croot%3E%3CmxCell%20id%3D%220%22%2F%3E%3CmxCell%20id%3D%221%22%20parent%3D%220%22%2F%3E%3CmxCell%20id%3D%222%22%20value%3D%22%22%20style%3D%22aspect%3Dfixed%3Bperimeter%3DellipsePerimeter%3Bhtml%3D1%3Balign%3Dcenter%3Bshadow%3D0%3Bdashed%3D0%3BspacingTop%3D3%3Bimage%3Bimage%3Dimg%2Flib%2Factive_directory%2Fgeneric_server.svg%3B%22%20vertex%3D%221%22%20parent%3D%221%22%3E%3CmxGeometry%20x%3D%2270%22%20y%3D%2250%22%20width%3D%2228.000000000000004%22%20height%3D%2250%22%20as%3D%22geometry%22%2F%3E%3C%2FmxCell%3E%3C%2Froot%3E%3C%2FmxGraphModel%3E&lt;/span&gt;" style="aspect=fixed;perimeter=ellipsePerimeter;html=1;align=center;shadow=0;dashed=0;spacingTop=3;image;image=img/lib/active_directory/generic_server.svg;" vertex="1" parent="1">
          <mxGeometry x="70" y="130" width="28.000000000000004" height="50" as="geometry" />
        </mxCell>
        <mxCell id="hd8weYj9Gk-Xb1H9IMSv-7" value="&lt;span style=&quot;color: rgba(0 , 0 , 0 , 0) ; font-family: monospace ; font-size: 0px ; background-color: rgb(248 , 249 , 250)&quot;&gt;%3CmxGraphModel%3E%3Croot%3E%3CmxCell%20id%3D%220%22%2F%3E%3CmxCell%20id%3D%221%22%20parent%3D%220%22%2F%3E%3CmxCell%20id%3D%222%22%20value%3D%22%22%20style%3D%22aspect%3Dfixed%3Bperimeter%3DellipsePerimeter%3Bhtml%3D1%3Balign%3Dcenter%3Bshadow%3D0%3Bdashed%3D0%3BspacingTop%3D3%3Bimage%3Bimage%3Dimg%2Flib%2Factive_directory%2Fgeneric_server.svg%3B%22%20vertex%3D%221%22%20parent%3D%221%22%3E%3CmxGeometry%20x%3D%2270%22%20y%3D%2250%22%20width%3D%2228.000000000000004%22%20height%3D%2250%22%20as%3D%22geometry%22%2F%3E%3C%2FmxCell%3E%3C%2Froot%3E%3C%2FmxGraphModel%3E&lt;/span&gt;" style="aspect=fixed;perimeter=ellipsePerimeter;html=1;align=center;shadow=0;dashed=0;spacingTop=3;image;image=img/lib/active_directory/generic_server.svg;" vertex="1" parent="1">
          <mxGeometry x="70" y="210" width="28.000000000000004" height="50" as="geometry" />
        </mxCell>
        <mxCell id="hd8weYj9Gk-Xb1H9IMSv-8" value="&lt;span style=&quot;color: rgba(0 , 0 , 0 , 0) ; font-family: monospace ; font-size: 0px ; background-color: rgb(248 , 249 , 250)&quot;&gt;%3CmxGraphModel%3E%3Croot%3E%3CmxCell%20id%3D%220%22%2F%3E%3CmxCell%20id%3D%221%22%20parent%3D%220%22%2F%3E%3CmxCell%20id%3D%222%22%20value%3D%22%22%20style%3D%22aspect%3Dfixed%3Bperimeter%3DellipsePerimeter%3Bhtml%3D1%3Balign%3Dcenter%3Bshadow%3D0%3Bdashed%3D0%3BspacingTop%3D3%3Bimage%3Bimage%3Dimg%2Flib%2Factive_directory%2Fgeneric_server.svg%3B%22%20vertex%3D%221%22%20parent%3D%221%22%3E%3CmxGeometry%20x%3D%2270%22%20y%3D%2250%22%20width%3D%2228.000000000000004%22%20height%3D%2250%22%20as%3D%22geometry%22%2F%3E%3C%2FmxCell%3E%3C%2Froot%3E%3C%2FmxGraphModel%3E&lt;/span&gt;" style="aspect=fixed;perimeter=ellipsePerimeter;html=1;align=center;shadow=0;dashed=0;spacingTop=3;image;image=img/lib/active_directory/generic_server.svg;" vertex="1" parent="1">
          <mxGeometry x="70" y="300" width="28.000000000000004" height="50" as="geometry" />
        </mxCell>
        <mxCell id="hd8weYj9Gk-Xb1H9IMSv-9" value="" style="aspect=fixed;html=1;points=[];align=center;image;fontSize=12;image=img/lib/mscae/Express_Route.svg;" vertex="1" parent="1">
          <mxGeometry x="170" y="210" width="50" height="30" as="geometry" />
        </mxCell>
        <mxCell id="hd8weYj9Gk-Xb1H9IMSv-10" value="LH Foundation Subscription" style="rounded=0;whiteSpace=wrap;html=1;" vertex="1" parent="1">
          <mxGeometry x="280" y="50" width="120" height="330" as="geometry" />
        </mxCell>
        <mxCell id="hd8weYj9Gk-Xb1H9IMSv-11" value="" style="aspect=fixed;html=1;points=[];align=center;image;fontSize=12;image=img/lib/azure2/compute/App_Services.svg;" vertex="1" parent="1">
          <mxGeometry x="520" y="66" width="64" height="64" as="geometry" />
        </mxCell>
        <mxCell id="hd8weYj9Gk-Xb1H9IMSv-12" value="" style="aspect=fixed;html=1;points=[];align=center;image;fontSize=12;image=img/lib/azure2/compute/Function_Apps.svg;" vertex="1" parent="1">
          <mxGeometry x="730" y="66" width="68" height="60" as="geometry" />
        </mxCell>
      </root>
    </mxGraphModel>
  </diagram>
</mxfile>
